<svg xmlns="http://www.w3.org/2000/svg" width="760" height="180" viewBox="0 0 760 180" role="img" aria-labelledby="title desc">
  <title id="title">발표 자료 제작자 워터마크</title>
  <desc id="desc">만든 사람 박이현, GitHub hynxp</desc>
  <defs>
    <linearGradient id="bg" x1="0" y1="0" x2="1" y2="1">
      <stop offset="0" stop-color="#ecfdf5"/>
      <stop offset="1" stop-color="#eff6ff"/>
    </linearGradient>
    <filter id="shadow" x="-10%" y="-20%" width="120%" height="140%">
      <feDropShadow dx="0" dy="10" stdDeviation="14" flood-color="#0f172a" flood-opacity="0.12"/>
    </filter>
  </defs>
  <rect x="18" y="18" width="724" height="144" rx="28" fill="url(#bg)" stroke="#cbd5e1" filter="url(#shadow)"/>
  <g opacity="0.12" transform="translate(548 12) rotate(-12)">
    <text x="0" y="82" font-family="Arial, sans-serif" font-size="56" font-weight="800" fill="#0f766e">Redis</text>
  </g>
  <circle cx="666" cy="90" r="34" fill="#0f766e" opacity="0.12"/>
  <circle cx="666" cy="90" r="22" fill="#0f766e" opacity="0.18"/>
  <text x="612" y="76" text-anchor="end" font-family="Pretendard, Apple SD Gothic Neo, Arial, sans-serif" font-size="24" font-weight="800" fill="#0f172a">만든 사람: 박이현</text>
  <text x="612" y="112" text-anchor="end" font-family="SF Mono, Menlo, Consolas, monospace" font-size="20" font-weight="700" fill="#0f766e">github.com/hynxp</text>
  <path d="M666 76c-8 0-14 6-14 14 0 6 4 11 9 13 1 0 1-1 1-1v-5c-4 1-5-2-5-2-1-2-2-3-2-3-2-1 0-1 0-1 2 0 3 2 3 2 2 3 5 2 6 2 0-2 1-3 1-3-4 0-8-2-8-9 0-2 1-4 2-5 0-1-1-3 0-5 0 0 2-1 5 2 2-1 4-1 6-1s4 0 6 1c3-3 5-2 5-2 1 2 0 4 0 5 1 1 2 3 2 5 0 7-4 9-8 9 1 1 2 2 2 5v5c0 1 0 1 1 1 5-2 9-7 9-13 0-8-6-14-14-14z" fill="#0f766e" opacity="0.72"/>
</svg>
